<?xml version="1.0" encoding="utf-8"?>
<!-- Generator: Adobe Illustrator 16.0.0, SVG Export Plug-In . SVG Version: 6.00 Build 0)  -->
<!DOCTYPE svg PUBLIC "-//W3C//DTD SVG 1.1//EN" "http://www.w3.org/Graphics/SVG/1.1/DTD/svg11.dtd" [
	<!ENTITY ns_flows "http://ns.adobe.com/Flows/1.0/">
	<!ENTITY ns_extend "http://ns.adobe.com/Extensibility/1.0/">
	<!ENTITY ns_ai "http://ns.adobe.com/AdobeIllustrator/10.0/">
	<!ENTITY ns_graphs "http://ns.adobe.com/Graphs/1.0/">
]>
<svg version="1.1" id="Слой_1" xmlns:x="&ns_extend;" xmlns:i="&ns_ai;" xmlns:graph="&ns_graphs;"
	 xmlns="http://www.w3.org/2000/svg" xmlns:xlink="http://www.w3.org/1999/xlink" xmlns:a="http://ns.adobe.com/AdobeSVGViewerExtensions/3.0/"
	 x="0px" y="0px" width="150px" height="190px" viewBox="0 0 150 190" enable-background="new 0 0 150 190" xml:space="preserve">
<linearGradient id="SVGID_1_" gradientUnits="userSpaceOnUse" x1="30.1963" y1="105.2031" x2="119.8027" y2="105.2031">
	<stop  offset="0" style="stop-color:#B428B4"/>
	<stop  offset="1" style="stop-color:#F0288C"/>
	<a:midPointStop  offset="0" style="stop-color:#B428B4"/>
	<a:midPointStop  offset="0.5" style="stop-color:#B428B4"/>
	<a:midPointStop  offset="1" style="stop-color:#F0288C"/>
</linearGradient>
<path fill-rule="evenodd" clip-rule="evenodd" fill="url(#SVGID_1_)" d="M115.109,110.255l3.331,5.446
	c-4.8,5.693-14.216,8.827-26.721,2.398l-2.132,1.888c8.232,11.698,6.304,21.048,1.305,27.3l-6.19-2.924l-4.151,4.851
	c-6.917-2.813-12.818-10.834-10.52-24.783l-2.629-1.128c-8.542,11.257-17.963,12.284-25.41,9.479l0.868-6.792l-5.896-2.448
	c0.533-7.38,6.241-15.391,19.942-17.602l-0.02-3.143c-12.817-4.697-16.562-13.189-16.202-21.006l6.728-1.274l0.507-6.364
	c7.484-1.848,17.357,1.429,23.685,15.124l2.201-0.697c-0.078-14.942,7.091-21.626,14.972-23.79l3.29,6.005l6.209-1.485
	c4.068,6.546,4.004,16.945-7.057,27.192l0.984,1.974c14.406-4.895,23.068-0.09,27.6,6.794L115.109,110.255z M82.928,106.843
	l9.09-2.128l-1.053-3.628l-8.973,1.905l7.664-14.968l-3.773-2.247l-7.871,15.152l0.992-10.083l-3.889,0.246l-1.533,9.74
	l-9.797-11.61l-3.223,3.169l9.784,11.836l-9.177-4.065l-1.607,3.721l8.859,3.414l-13.945,4.934l1.659,4.47l14.328-4.892l-6.23,6.066
	l2.347,3.123l7.41-5.777l1.822,13.79l5.166-1.077l-2.174-13.775l5.072,7.001l3.446-3.095l-5.225-6.999l14.505,2.772l0.65-3.968
	L82.928,106.843z M98.848,93.093c2.982-3.77,4.914-7.493,6.026-11.062c3.415,0.026,7.191,0.313,11.388,0.927
	c-1.455,3.96-3.032,7.396-4.688,10.391C107.9,92.491,103.685,92.312,98.848,93.093z M62.104,71.862
	c1.084-3.275,2.536-6.819,4.442-10.67c3.255,2.56,5.995,5.075,8.305,7.532c-1.872,3.265-3.267,7.244-3.95,12.091
	C68.186,76.869,65.193,73.951,62.104,71.862z M49.917,103.627c-4.507,1.498-8.1,3.579-10.912,5.998
	c-2.79-2.048-5.723-4.532-8.809-7.547c3.604-2.414,6.985-4.304,10.161-5.771C42.721,99.009,45.842,101.5,49.917,103.627z
	 M67.746,142.703c-2.858,2.075-6.199,4.151-10.123,6.208c-1.174-4.146-1.926-7.924-2.341-11.378
	c3.394-1.251,6.833-3.314,10.228-6.44C65.585,135.57,66.41,139.423,67.746,142.703z M108.293,125.869
	c1.029,3.251,1.92,6.925,2.631,11.099c-4.301-0.164-8.123-0.616-11.533-1.288c-0.199-3.622-1.157-7.536-3.142-11.733
	C100.637,125.446,104.66,126.005,108.293,125.869z"/>
</svg>
