<?xml version="1.0" encoding="utf-8"?>
<!-- Generator: Adobe Illustrator 16.0.0, SVG Export Plug-In . SVG Version: 6.00 Build 0)  -->
<!DOCTYPE svg PUBLIC "-//W3C//DTD SVG 1.1//EN" "http://www.w3.org/Graphics/SVG/1.1/DTD/svg11.dtd" [
	<!ENTITY ns_flows "http://ns.adobe.com/Flows/1.0/">
	<!ENTITY ns_extend "http://ns.adobe.com/Extensibility/1.0/">
	<!ENTITY ns_ai "http://ns.adobe.com/AdobeIllustrator/10.0/">
	<!ENTITY ns_graphs "http://ns.adobe.com/Graphs/1.0/">
]>
<svg version="1.1" id="Слой_1" xmlns:x="&ns_extend;" xmlns:i="&ns_ai;" xmlns:graph="&ns_graphs;"
	 xmlns="http://www.w3.org/2000/svg" xmlns:xlink="http://www.w3.org/1999/xlink" xmlns:a="http://ns.adobe.com/AdobeSVGViewerExtensions/3.0/"
	 x="0px" y="0px" width="150px" height="190px" viewBox="0 0 150 190" enable-background="new 0 0 150 190" xml:space="preserve">
<path fill-rule="evenodd" clip-rule="evenodd" d="M68.804,133.735l0.253-5.682c14.016-0.609,20.811-7.908,20.811-20.243
	c0-14.908-12.367-19.853-20.494-18.065c0.975-2.926,5.202-24.735-12.68-24.735c-17.247,0-13.606,17.587-12.96,20.945
	c-12.919,0-15.333,11.477-15.333,16.901c0,7.217,6.264,14.847,19.485,14.847v6.173c-31.908,0-33.191-36.268-11.755-43.351
	c-1.943-13.485,7.33-22.71,20.505-22.71c12.051,0,21.641,8.924,20.28,24.788l17.026-24.794l22.483,29.537l-7.572,3.135
	l13.627,15.823l-11.114,4.162l18.202,21.979L68.804,133.735z M39.844,98.524l1.828-3.935l12.26,7.168l0.533-18.363l6.637-1.222
	l1.844,28.24l15.277-10.938l2.437,5.156l-16.98,17.021l1.675,25.657l-12.727-0.61l0.966-33.288L39.844,98.524z M104.181,137.989
	l0.881,8.754H87.423l0.882-9.636L104.181,137.989z"/>
</svg>
